<svg width="172" height="35" viewBox="0 0 172 35" fill="none" xmlns="http://www.w3.org/2000/svg">
<path d="M0.1 35V0.499997H7.3V14H20.1V0.499997H27.3V35H20.1V20.5H7.3V35H0.1ZM35.5004 35V0.499997H42.7004V35H35.5004ZM50.8813 35V0.499997H58.0813V14H70.8813V0.499997H78.0813V35H70.8813V20.5H58.0813V35H50.8813ZM83.0816 33.65L93.3316 0.499997H104.332L114.582 33.65L113.682 35H107.682L105.582 28H92.0816L89.9816 35H83.9816L83.0816 33.65ZM94.0316 21.5H103.632L99.2316 7H98.4316L94.0316 21.5ZM119.582 35V0.499997H128.182L137.882 21.2L147.582 0.499997H156.182V35H148.982V13.2L140.882 30.5H134.882L126.782 13.2V35H119.582ZM164.407 35V0.499997H171.607V35H164.407Z" fill="white"/>
</svg>
